<svg xmlns="http://www.w3.org/2000/svg" xmlns:xlink="http://www.w3.org/1999/xlink" class="SvgSymbol-root SvgSymbol-medium" width="24" height="24" viewBox="0 0 24 24" fill="#f2f2f2"><path d="M20.3911979,19.1408969 L15.732071,14.4566357 C15.8634471,14.2781995 15.9554281,14.1528842 16.019601,14.0648248 L16.0274443,14.0541293 C16.0798522,13.9851435 16.1304774,13.9158012 16.1796766,13.8450328 L16.184133,13.838972 L16.1839548,13.838972 C18.0091375,11.2157287 17.6050268,7.50564685 15.1910582,5.09185654 C13.8421807,3.7428007 12.0487279,3 10.1413683,3 C8.23400866,3 6.44091237,3.7428007 5.09185654,5.09167828 C3.74297896,6.44055586 3,8.23400866 3,10.1417248 C3,12.0492626 3.7428007,13.8428937 5.09185654,15.191593 C6.4369907,16.5369054 8.22598705,17.2777453 10.1290685,17.2777453 L10.1290685,17.2777453 C11.2699191,17.2777453 12.4066697,17.0016238 13.4236311,16.475763 C13.5378944,16.4114119 13.8767627,16.2146151 14.1487843,15.9946449 L18.8806404,20.617942 C18.9089834,20.646285 19.0617504,20.788 19.2838598,20.788 C19.3811886,20.788 19.5266471,20.7593005 19.6672925,20.6225767 L19.9036625,20.3944065 C20.0842378,20.2206051 20.2740825,20.0377125 20.4100932,19.9018799 C20.6744497,19.6373452 20.5462823,19.304716 20.3911979,19.1408969 L20.3911979,19.1408969 Z M10.1083905,4.92179849 C12.9833341,4.92179849 15.3220778,7.26072049 15.3220778,10.135664 C15.3220778,13.010251 12.9833341,15.3493513 10.1083905,15.3493513 C7.23344703,15.3493513 4.89452503,13.010251 4.89452503,10.135664 C4.89452503,7.26072049 7.23344703,4.92179849 10.1083905,4.92179849 L10.1083905,4.92179849 Z "></path></svg>
